<?xml version="1.0" standalone="no"?>
<!DOCTYPE svg PUBLIC "-//W3C//DTD SVG 20010904//EN"
 "http://www.w3.org/TR/2001/REC-SVG-20010904/DTD/svg10.dtd">
<svg version="1.0" xmlns="http://www.w3.org/2000/svg"
 width="249.000000pt" height="211.000000pt" viewBox="0 0 249.000000 211.000000"
 preserveAspectRatio="xMidYMid meet">

<g transform="translate(0.000000,211.000000) scale(0.100000,-0.100000)"
fill="#000000" stroke="none">
<path d="M1003 1848 c-12 -13 -89 -126 -172 -252 -83 -127 -153 -231 -155
-233 -1 -2 -76 107 -166 242 -115 173 -170 247 -186 251 -33 8 -61 -4 -68 -29
-11 -40 -7 -897 4 -918 12 -21 50 -25 68 -7 9 9 12 114 12 413 l0 400 153
-230 c129 -196 156 -230 179 -233 25 -3 38 13 172 217 80 122 147 221 148 221
2 0 3 -89 4 -198 l1 -198 -74 -12 c-190 -30 -345 -176 -406 -381 -27 -91 -29
-317 -3 -411 67 -245 261 -400 501 -400 139 0 256 44 353 133 61 57 66 69 41
101 -11 14 -29 26 -40 26 -10 0 -44 -23 -75 -51 -80 -72 -149 -102 -251 -107
-153 -8 -277 52 -358 173 -22 33 -49 85 -59 115 -23 71 -33 254 -17 344 31
179 143 311 296 351 106 27 95 80 95 -453 0 -351 3 -471 12 -480 18 -18 56
-14 68 7 6 12 10 122 10 288 0 147 3 352 7 456 5 162 8 187 22 187 33 0 138
-60 183 -104 54 -53 78 -57 107 -20 25 32 19 46 -49 107 -61 55 -154 103 -216
113 l-44 6 0 272 c0 230 -2 275 -16 294 -20 28 -55 28 -81 0z"/>
<path d="M1457 1773 c-12 -11 -8 -371 4 -378 6 -4 13 -4 17 0 4 4 8 86 10 184
3 144 1 179 -11 189 -7 7 -17 9 -20 5z"/>
<path d="M1233 1639 c-19 -6 -33 -16 -33 -25 0 -11 5 -14 18 -9 9 4 38 10 64
12 60 7 78 -7 78 -58 0 -44 1 -43 -36 -28 -22 8 -38 6 -71 -6 -74 -28 -95 -86
-47 -124 31 -25 71 -27 119 -7 29 13 35 13 46 0 15 -19 49 -18 49 1 0 8 -7 15
-15 15 -12 0 -15 18 -15 98 0 53 -4 102 -8 108 -21 32 -84 42 -149 23z m111
-135 c21 -8 21 -58 0 -75 -25 -20 -114 -18 -128 4 -28 44 64 95 128 71z"/>
<path d="M1579 1627 c-68 -46 -75 -153 -14 -214 25 -25 42 -33 69 -33 79 0
126 54 126 145 0 42 -5 52 -39 86 -46 47 -89 52 -142 16z m112 -20 c54 -41 49
-169 -6 -191 -56 -21 -109 5 -126 63 -14 47 1 103 34 126 26 18 76 19 98 2z"/>
<path d="M1856 1629 c-21 -17 -26 -18 -26 -5 0 9 -7 16 -15 16 -13 0 -15 -21
-15 -125 0 -104 2 -125 15 -125 12 0 15 17 15 93 0 85 2 96 23 115 28 27 78
29 100 4 12 -13 17 -42 19 -112 2 -64 7 -95 16 -98 16 -5 17 176 1 211 -22 48
-89 61 -133 26z"/>
<path d="M2049 1593 c10 -26 33 -84 51 -127 31 -79 31 -80 15 -123 -10 -25
-24 -44 -33 -45 -9 0 -23 -2 -31 -2 -8 -1 -16 -7 -19 -14 -6 -20 62 -15 82 7
16 17 136 320 136 342 0 5 -6 9 -13 9 -7 0 -30 -46 -51 -105 -22 -58 -41 -103
-45 -100 -3 3 -22 50 -42 103 -23 63 -42 98 -53 100 -15 3 -15 -1 3 -45z"/>
<path d="M1367 834 c-11 -11 5 -34 24 -34 12 0 19 7 19 20 0 19 -28 28 -43 14z"/>
<path d="M1860 819 c0 -14 5 -19 17 -17 26 5 29 38 4 38 -15 0 -21 -6 -21 -21z"/>
<path d="M1717 823 c-4 -3 -7 -24 -7 -45 0 -34 -3 -38 -25 -38 -16 0 -25 -6
-25 -15 0 -9 9 -15 25 -15 25 0 25 -1 25 -89 0 -49 4 -101 9 -114 10 -26 50
-42 82 -32 27 9 24 25 -5 25 -45 0 -56 23 -56 121 l0 89 40 0 c29 0 40 4 40
15 0 11 -11 15 -40 15 l-40 0 0 45 c0 42 -7 54 -23 38z"/>
<path d="M1194 727 c-2 -7 -3 -64 -2 -127 2 -80 7 -115 16 -118 9 -3 12 19 12
86 0 106 13 131 75 141 50 8 59 31 12 31 -20 0 -46 -9 -61 -21 l-26 -20 0 20
c0 23 -18 28 -26 8z"/>
<path d="M1374 727 c-2 -7 -3 -64 -2 -127 2 -80 7 -115 16 -118 9 -3 12 27 12
127 0 83 -4 131 -10 131 -6 0 -13 -6 -16 -13z"/>
<path d="M1482 724 c-27 -18 -30 -75 -6 -95 9 -8 44 -23 78 -34 68 -22 80 -41
47 -74 -26 -26 -67 -27 -108 -1 -20 12 -35 15 -38 9 -18 -28 66 -64 124 -53
17 4 40 18 51 32 41 51 18 88 -71 117 -55 19 -64 25 -67 48 -3 22 2 28 25 34
33 8 49 7 80 -9 31 -15 41 -3 18 22 -23 25 -100 27 -133 4z"/>
<path d="M1864 727 c-2 -7 -3 -64 -2 -127 2 -80 7 -115 16 -118 9 -3 12 27 12
127 0 83 -4 131 -10 131 -6 0 -13 -6 -16 -13z"/>
<path d="M1984 730 c-12 -5 -25 -14 -29 -21 -6 -9 4 -10 41 -4 64 10 106 7
116 -8 4 -7 8 -28 8 -49 0 -36 0 -36 -28 -26 -93 35 -198 -68 -131 -128 26
-23 97 -24 131 -2 20 14 24 13 38 -4 10 -12 21 -17 33 -13 21 9 23 25 2 25
-12 0 -15 18 -15 100 0 124 -11 140 -92 139 -29 0 -63 -4 -74 -9z m120 -136
c21 -8 20 -47 -1 -67 -25 -21 -86 -31 -112 -18 -28 15 -27 56 1 75 23 16 83
21 112 10z"/>
<path d="M2214 727 c-2 -7 -3 -64 -2 -127 2 -80 7 -115 16 -118 9 -3 12 19 12
86 0 111 18 142 80 142 52 0 62 -21 61 -124 -1 -84 8 -114 29 -101 9 5 11 36
8 106 -3 87 -6 101 -28 124 -28 30 -87 34 -125 9 -23 -15 -25 -15 -25 0 0 19
-19 21 -26 3z"/>
</g>
</svg>
