<?xml version="1.0" standalone="no"?>
<!DOCTYPE svg PUBLIC "-//W3C//DTD SVG 20010904//EN"
 "http://www.w3.org/TR/2001/REC-SVG-20010904/DTD/svg10.dtd">
<svg version="1.0" xmlns="http://www.w3.org/2000/svg"
 width="100.000000pt" height="100.000000pt" viewBox="0 0 100.000000 100.000000"
 preserveAspectRatio="xMidYMid meet">

<g transform="translate(0.000000,100.000000) scale(0.100000,-0.100000)"
fill="#000000" stroke="none">
<path d="M403 878 c-4 -7 -35 -62 -69 -121 -45 -81 -63 -105 -71 -95 -6 7 -36
59 -68 116 -87 153 -90 148 -90 -128 0 -193 2 -225 15 -225 13 0 15 29 18 190
l3 190 60 -108 c33 -60 66 -106 72 -104 6 2 37 50 69 108 l58 104 0 -97 c0
-96 -1 -98 -23 -98 -13 0 -44 -13 -69 -29 -69 -44 -102 -118 -106 -238 -4
-108 12 -169 60 -227 36 -44 97 -75 146 -76 65 0 162 60 162 101 0 32 -21 32
-53 -1 -81 -83 -191 -63 -246 45 -23 43 -26 62 -26 145 0 83 3 101 25 140 26
46 80 90 111 90 18 0 19 -13 19 -226 0 -209 1 -225 18 -222 15 3 17 23 20 226
1 122 5 222 8 222 12 0 51 -24 76 -47 26 -25 48 -24 48 1 0 19 -62 74 -97 87
l-32 11 -3 136 c-2 91 -7 137 -15 139 -6 2 -15 -2 -20 -9z"/>
<path d="M580 750 c0 -53 4 -90 10 -90 6 0 10 37 10 90 0 53 -4 90 -10 90 -6
0 -10 -37 -10 -90z"/>
<path d="M486 771 c-3 -5 9 -8 27 -7 26 1 33 -3 35 -21 3 -17 -1 -20 -15 -17
-26 7 -66 -26 -58 -48 9 -22 32 -30 54 -18 12 6 22 5 29 -2 7 -7 9 2 6 33 -10
84 -12 89 -44 89 -16 0 -31 -4 -34 -9z m53 -60 c21 -13 5 -41 -24 -41 -38 0
-33 44 5 49 3 0 11 -3 19 -8z"/>
<path d="M626 758 c-26 -37 -16 -88 19 -102 45 -17 81 54 51 99 -20 31 -50 32
-70 3z m50 4 c32 -22 20 -92 -16 -92 -28 0 -44 38 -31 73 10 27 26 33 47 19z"/>
<path d="M720 716 c0 -69 17 -66 22 4 2 37 6 45 23 45 17 0 21 -9 26 -55 l6
-55 -1 60 -1 60 -37 0 -38 1 0 -60z"/>
<path d="M821 774 c-1 -6 7 -35 17 -65 20 -58 19 -77 -6 -96 -9 -7 -11 -13 -5
-13 6 0 15 6 20 13 15 18 55 145 51 159 -3 7 -10 -9 -17 -35 -8 -26 -17 -47
-21 -47 -3 0 -14 21 -22 48 -9 26 -17 42 -17 36z"/>
<path d="M550 390 c0 -5 5 -10 10 -10 6 0 10 5 10 10 0 6 -4 10 -10 10 -5 0
-10 -4 -10 -10z"/>
<path d="M691 373 c0 -12 -7 -24 -13 -26 -10 -4 -10 -6 0 -6 8 -1 12 -19 12
-55 0 -38 4 -56 15 -59 8 -4 17 -2 20 3 4 6 -1 10 -9 10 -24 0 -23 97 2 103
15 4 15 5 0 6 -9 0 -19 11 -21 24 -4 22 -4 22 -6 0z"/>
<path d="M482 285 l1 -60 6 50 c5 40 11 52 31 62 25 13 25 13 -7 11 l-33 -2 2
-61z"/>
<path d="M553 290 c0 -36 2 -50 4 -32 2 17 2 47 0 65 -2 17 -4 3 -4 -33z"/>
<path d="M591 332 c-12 -22 -4 -34 32 -50 36 -16 29 -37 -12 -36 -36 2 -39 -1
-11 -16 26 -14 60 3 60 31 0 14 -10 25 -30 32 -35 13 -37 42 -2 41 12 0 22 3
22 8 0 16 -49 8 -59 -10z"/>
<path d="M753 290 c0 -36 2 -50 4 -32 2 17 2 47 0 65 -2 17 -4 3 -4 -33z"/>
<path d="M786 341 c-3 -5 9 -8 27 -7 26 1 33 -3 35 -21 3 -17 -1 -21 -12 -17
-21 8 -56 -14 -56 -36 0 -24 31 -42 50 -30 8 5 19 5 26 -1 8 -6 10 5 7 43 -3
29 -6 59 -8 66 -5 14 -61 17 -69 3z m61 -85 c-8 -21 -57 -21 -57 -1 0 18 41
37 54 25 5 -5 6 -16 3 -24z"/>
<path d="M892 285 c1 -55 2 -56 5 -13 7 88 61 88 65 -1 1 -46 1 -46 5 -7 3 22
2 50 -2 63 -5 20 -11 23 -40 21 l-35 -2 2 -61z"/>
</g>
</svg>
