<?xml version="1.0" standalone="no"?>
<!DOCTYPE svg PUBLIC "-//W3C//DTD SVG 20010904//EN"
 "http://www.w3.org/TR/2001/REC-SVG-20010904/DTD/svg10.dtd">
<svg version="1.0" xmlns="http://www.w3.org/2000/svg"
 width="1260.000000pt" height="1483.000000pt" viewBox="0 0 1260.000000 1483.000000"
 preserveAspectRatio="xMidYMid meet">

<g transform="translate(0.000000,1483.000000) scale(0.100000,-0.100000)"
fill="#000000" stroke="none">
<path d="M3680 9840 l0 -1950 250 0 250 0 0 1652 c0 908 2 1649 5 1647 7 -8
755 -2210 755 -2224 0 -7 -16 -47 -36 -89 -49 -107 -118 -318 -148 -456 -175
-800 -27 -1710 375 -2310 295 -440 720 -703 1264 -784 629 -94 1165 0 1580
279 378 253 622 605 785 1133 18 57 30 105 28 106 -1 2 -133 35 -293 75 -159
39 -297 74 -307 77 -13 4 -18 -5 -23 -38 -12 -74 -93 -309 -140 -404 -185
-382 -492 -619 -916 -711 -118 -25 -456 -25 -582 0 -450 91 -798 350 -982 732
-145 299 -212 623 -222 1063 l-6 252 230 0 231 0 66 193 c37 105 162 467 279
802 l212 610 70 18 c113 28 241 47 378 54 l127 6 0 -841 0 -842 250 0 250 0 0
785 c0 621 3 785 13 785 18 0 165 -86 224 -132 69 -52 168 -158 228 -242 62
-87 152 -265 195 -386 18 -52 34 -96 36 -98 2 -4 594 135 600 141 6 6 -60 191
-102 289 -171 390 -466 699 -842 879 -85 41 -304 119 -334 119 -17 0 -18 49
-18 880 l0 880 -349 0 -349 0 -86 -252 c-48 -139 -189 -550 -314 -912 l-227
-659 -100 -42 c-273 -113 -471 -242 -666 -432 l-66 -64 -394 1178 -395 1178
-392 3 -392 2 0 -1950z m3230 770 l0 -520 -122 -1 c-68 0 -150 -4 -183 -8 -33
-5 -62 -7 -63 -5 -4 3 360 1054 365 1054 2 0 3 -234 3 -520z m-1219 -1798
l-119 -353 -37 113 c-20 62 -38 118 -40 124 -5 16 75 178 126 256 48 73 183
232 186 221 2 -5 -51 -167 -116 -361z"/>
</g>
</svg>
